# xmcd
# 
# Track frame offsets:
#     150
#     14205
#     35072
#     57845
#     84285
#     106270
#     137760
#     163235
#     191802
#     206092
#     219890
#     241855
#     271905
#     289390
#     316542
# 
# Disc length: 4606
# 
# Revision: 3
# Processed by: cddbd v1.5.2PL0 Copyright (c) Steve Scherf et al.
# Submitted via: fre:ac v1.1beta1pre5
# 
DISCID=da11fc0f
DTITLE=Various Artist - Telarc Jazz - Celebrating 25 Years CD2
DYEAR=2002
DGENRE=Jazz
TTITLE0=Mel Torme - 01 I'm Gonna Go Fishin'
TTITLE1=Ahmad Jamal - 02 Skylark
TTITLE2=Jim Hall, The New York Voices - 03 Waltz for Debby
TTITLE3=Freddy Cole - 04 Merry-Go-Round
TTITLE4=McCoy Tyner, Stanley Clark, Al Foster - 05 The Night Has a Thousand Eye
TTITLE5=Jacques Loussier Trio - 06 Vivaldi: Allegro from The Four Seasons
TTITLE6=Ray Brown Trio, Nancy King - 07 But Beautiful
TTITLE7=Dave Brubeck - 08 Joshua Redman
TTITLE8=Benny Green - 09 Just You, Just Me
TTITLE9=Stephane Grappelli - 10 All God's Chillun Got Rhythm
TTITLE10=Bobby Short, Alden-Barrett Quintet - 11 Tenderly
TTITLE11=Steve Turre - 12 Back in the Day
TTITLE12=John Pizzarelli, George Shearing Quintet - 13 Lemon Twist
TTITLE13=Monty Alexander - 14 Trust
TTITLE14=Kevin Mahogany, Jon Faddis - 15 Pride and Joy
EXTD=YEAR: 2002
EXTT0=
EXTT1=
EXTT2=
EXTT3=
EXTT4=
EXTT5=
EXTT6=
EXTT7=
EXTT8=
EXTT9=
EXTT10=
EXTT11=
EXTT12=
EXTT13=
EXTT14=
PLAYORDER=
